<svg xmlns="http://www.w3.org/2000/svg" xmlns:xlink="http://www.w3.org/1999/xlink" version="1.1" width="256" height="256" viewBox="0 0 256 256" xml:space="preserve">
<desc>Created with Fabric.js 1.7.22</desc>
<defs>
</defs>
<g transform="translate(128 128) scale(0.72 0.72)" style="">
	<g style="stroke: none; stroke-width: 0; stroke-dasharray: none; stroke-linecap: butt; stroke-linejoin: miter; stroke-miterlimit: 10; fill: none; fill-rule: nonzero; opacity: 1;" transform="translate(-175.05 -175.05000000000004) scale(3.89 3.89)" >
	<path d="M 3.522 87.501 c -0.262 0 -0.523 -0.1 -0.723 -0.3 c -0.4 -0.399 -0.4 -1.047 0 -1.446 L 60.224 28.33 c 0.4 -0.4 1.047 -0.4 1.446 0 c 0.4 0.4 0.4 1.047 0 1.446 L 4.245 87.201 C 4.045 87.401 3.784 87.501 3.522 87.501 z" style="stroke: none; stroke-width: 1; stroke-dasharray: none; stroke-linecap: butt; stroke-linejoin: miter; stroke-miterlimit: 10; fill: rgb(0,153,89); fill-rule: nonzero; opacity: 1;" transform=" matrix(1 0 0 1 0 0) " stroke-linecap="round" />
	<ellipse cx="75.46000000000001" cy="14.536000000000001" rx="20.53" ry="6.886" style="stroke: none; stroke-width: 1; stroke-dasharray: none; stroke-linecap: butt; stroke-linejoin: miter; stroke-miterlimit: 10; fill: rgb(111,191,107); fill-rule: nonzero; opacity: 1;" transform=" matrix(0.7071 -0.7071 0.7071 0.7071 11.8242 57.6185) "/>
	<ellipse cx="7.248" cy="59.551" rx="6.718" ry="20.031" style="stroke: none; stroke-width: 1; stroke-dasharray: none; stroke-linecap: butt; stroke-linejoin: miter; stroke-miterlimit: 10; fill: rgb(111,191,107); fill-rule: nonzero; opacity: 1;" transform=" matrix(0.9848 -0.1736 0.1736 0.9848 -10.2309 2.1626) "/>
	<ellipse cx="25.258" cy="41.541" rx="6.718" ry="20.031" style="stroke: none; stroke-width: 1; stroke-dasharray: none; stroke-linecap: butt; stroke-linejoin: miter; stroke-miterlimit: 10; fill: rgb(111,191,107); fill-rule: nonzero; opacity: 1;" transform=" matrix(0.9848 -0.1736 0.1736 0.9848 -6.8301 5.0162) "/>
	<ellipse cx="43.257999999999996" cy="23.531" rx="6.718" ry="20.031" style="stroke: none; stroke-width: 1; stroke-dasharray: none; stroke-linecap: butt; stroke-linejoin: miter; stroke-miterlimit: 10; fill: rgb(111,191,107); fill-rule: nonzero; opacity: 1;" transform=" matrix(0.9848 -0.1736 0.1736 0.9848 -3.4294 7.8698) "/>
	<ellipse cx="30.448" cy="82.761" rx="6.718" ry="20.031" style="stroke: none; stroke-width: 1; stroke-dasharray: none; stroke-linecap: butt; stroke-linejoin: miter; stroke-miterlimit: 10; fill: rgb(111,191,107); fill-rule: nonzero; opacity: 1;" transform=" matrix(0.1736 -0.9848 0.9848 0.1736 -56.3375 98.3717) "/>
	<ellipse cx="48.458" cy="64.751" rx="6.718" ry="20.031" style="stroke: none; stroke-width: 1; stroke-dasharray: none; stroke-linecap: butt; stroke-linejoin: miter; stroke-miterlimit: 10; fill: rgb(111,191,107); fill-rule: nonzero; opacity: 1;" transform=" matrix(0.1736 -0.9848 0.9848 0.1736 -23.7207 101.2252) "/>
	<ellipse cx="66.468" cy="46.741" rx="6.718" ry="20.031" style="stroke: none; stroke-width: 1; stroke-dasharray: none; stroke-linecap: butt; stroke-linejoin: miter; stroke-miterlimit: 10; fill: rgb(111,191,107); fill-rule: nonzero; opacity: 1;" transform=" matrix(0.1736 -0.9848 0.9848 0.1736 8.896 104.0788) "/>
</g>
</g>
</svg>