<svg xmlns="http://www.w3.org/2000/svg" xmlns:xlink="http://www.w3.org/1999/xlink" version="1.1" width="256" height="256" viewBox="0 0 256 256" xml:space="preserve">
<desc>Created with Fabric.js 1.7.22</desc>
<defs>
</defs>
<g transform="translate(128 128) scale(0.72 0.72)" style="">
	<g style="stroke: none; stroke-width: 0; stroke-dasharray: none; stroke-linecap: butt; stroke-linejoin: miter; stroke-miterlimit: 10; fill: none; fill-rule: nonzero; opacity: 1;" transform="translate(-175.05 -175.05000000000004) scale(3.89 3.89)" >
	<path d="M 72.191 87.847 c -0.129 0 -0.258 -0.024 -0.38 -0.075 C 60.86 83.269 49.315 77.338 44.998 67.305 C 40.68 77.338 29.134 83.269 18.184 87.771 c -0.321 0.134 -0.687 0.089 -0.968 -0.116 c -0.281 -0.203 -0.436 -0.538 -0.409 -0.885 c 0.898 -11.806 2.972 -24.62 11.179 -31.825 C 17.11 53.938 7.902 44.791 0.235 35.769 c -0.225 -0.265 -0.296 -0.626 -0.189 -0.957 c 0.107 -0.33 0.378 -0.581 0.715 -0.663 c 11.506 -2.792 24.333 -4.782 33.722 0.797 c -2.405 -10.654 3.45 -22.238 9.663 -32.318 c 0.363 -0.591 1.338 -0.591 1.702 0 c 6.213 10.08 12.068 21.664 9.664 32.318 c 9.392 -5.579 22.217 -3.591 33.722 -0.797 c 0.337 0.082 0.607 0.333 0.715 0.663 s 0.035 0.692 -0.189 0.957 c -7.665 9.022 -16.874 18.17 -27.75 19.177 c 8.208 7.205 10.281 20.019 11.18 31.825 c 0.026 0.347 -0.129 0.682 -0.409 0.885 C 72.605 87.782 72.399 87.847 72.191 87.847 z M 44.998 63.302 L 44.998 63.302 c 0.449 0 0.843 0.3 0.963 0.732 c 2.889 10.411 14.102 16.614 25.101 21.259 c -1.019 -11.896 -3.453 -24.479 -12.462 -30.441 c -0.375 -0.248 -0.538 -0.716 -0.399 -1.143 c 0.14 -0.428 0.543 -0.722 0.994 -0.69 c 10.813 0.471 20.16 -8.279 27.976 -17.304 c -11.628 -2.707 -24.345 -4.279 -32.803 2.444 c -0.351 0.281 -0.846 0.291 -1.21 0.026 c -0.363 -0.264 -0.506 -0.738 -0.349 -1.159 c 3.782 -10.12 -1.644 -21.73 -7.813 -31.953 c -6.168 10.223 -11.594 21.833 -7.812 31.953 c 0.158 0.421 0.015 0.895 -0.349 1.159 c -0.363 0.264 -0.858 0.254 -1.21 -0.026 c -8.455 -6.724 -21.172 -5.152 -32.802 -2.444 c 7.816 9.024 17.181 17.773 27.974 17.304 c 0.452 -0.028 0.856 0.263 0.995 0.69 c 0.139 0.427 -0.024 0.895 -0.399 1.143 c -9.007 5.963 -11.442 18.545 -12.461 30.441 c 11 -4.645 22.213 -10.848 25.103 -21.259 C 44.155 63.602 44.549 63.302 44.998 63.302 z" style="stroke: none; stroke-width: 1; stroke-dasharray: none; stroke-linecap: butt; stroke-linejoin: miter; stroke-miterlimit: 10; fill: rgb(0,0,0); fill-rule: nonzero; opacity: 1;" transform=" matrix(1 0 0 1 0 0) " stroke-linecap="round" />
	<path d="M 45 59.128 c -5.033 0 -9.128 -4.095 -9.128 -9.128 s 4.095 -9.128 9.128 -9.128 s 9.128 4.095 9.128 9.128 S 50.033 59.128 45 59.128 z M 45 42.872 c -3.93 0 -7.128 3.197 -7.128 7.128 S 41.07 57.128 45 57.128 c 3.931 0 7.128 -3.197 7.128 -7.128 S 48.931 42.872 45 42.872 z" style="stroke: none; stroke-width: 1; stroke-dasharray: none; stroke-linecap: butt; stroke-linejoin: miter; stroke-miterlimit: 10; fill: rgb(0,0,0); fill-rule: nonzero; opacity: 1;" transform=" matrix(1 0 0 1 0 0) " stroke-linecap="round" />
</g>
</g>
</svg>